<mxfile host="app.diagrams.net" modified="2022-12-29T08:26:13.166Z" agent="5.0 (Windows)" etag="XjaRJjxOdpBeV3auBqmx" version="20.7.4" type="github">
  <diagram id="mmK9sB46ZYlwblmF82ep" name="第 1 页">
    <mxGraphModel dx="880" dy="442" grid="1" gridSize="10" guides="1" tooltips="1" connect="1" arrows="1" fold="1" page="1" pageScale="1" pageWidth="827" pageHeight="1169" math="0" shadow="0">
      <root>
        <mxCell id="0" />
        <mxCell id="1" parent="0" />
        <mxCell id="f1NmM2olDXPTfRD7Q3vH-14" style="edgeStyle=none;rounded=0;orthogonalLoop=1;jettySize=auto;html=1;" parent="1" source="f1NmM2olDXPTfRD7Q3vH-1" target="f1NmM2olDXPTfRD7Q3vH-12" edge="1">
          <mxGeometry relative="1" as="geometry" />
        </mxCell>
        <mxCell id="f1NmM2olDXPTfRD7Q3vH-19" style="edgeStyle=none;rounded=0;orthogonalLoop=1;jettySize=auto;html=1;entryX=1;entryY=0.5;entryDx=0;entryDy=0;" parent="1" source="f1NmM2olDXPTfRD7Q3vH-1" target="f1NmM2olDXPTfRD7Q3vH-2" edge="1">
          <mxGeometry relative="1" as="geometry" />
        </mxCell>
        <mxCell id="f1NmM2olDXPTfRD7Q3vH-20" style="edgeStyle=none;rounded=0;orthogonalLoop=1;jettySize=auto;html=1;entryX=0;entryY=0.5;entryDx=0;entryDy=0;" parent="1" source="f1NmM2olDXPTfRD7Q3vH-1" target="f1NmM2olDXPTfRD7Q3vH-5" edge="1">
          <mxGeometry relative="1" as="geometry" />
        </mxCell>
        <mxCell id="1Lz5mu5inwifLmUSbfgd-13" style="edgeStyle=none;rounded=0;orthogonalLoop=1;jettySize=auto;html=1;entryX=0;entryY=0.25;entryDx=0;entryDy=0;" edge="1" parent="1" source="f1NmM2olDXPTfRD7Q3vH-1" target="1Lz5mu5inwifLmUSbfgd-9">
          <mxGeometry relative="1" as="geometry" />
        </mxCell>
        <mxCell id="f1NmM2olDXPTfRD7Q3vH-1" value="前端queryDto" style="rounded=1;whiteSpace=wrap;html=1;" parent="1" vertex="1">
          <mxGeometry x="330" y="80" width="120" height="60" as="geometry" />
        </mxCell>
        <mxCell id="f1NmM2olDXPTfRD7Q3vH-2" value="&lt;div&gt;checkCommonParams方法&lt;/div&gt;&lt;div&gt;检测数据为空&lt;br&gt;&lt;/div&gt;" style="rounded=1;whiteSpace=wrap;html=1;" parent="1" vertex="1">
          <mxGeometry x="70" y="80" width="140" height="60" as="geometry" />
        </mxCell>
        <mxCell id="f1NmM2olDXPTfRD7Q3vH-4" value="queryDto" style="text;html=1;align=center;verticalAlign=middle;resizable=0;points=[];autosize=1;strokeColor=none;fillColor=none;" parent="1" vertex="1">
          <mxGeometry x="230" y="80" width="70" height="30" as="geometry" />
        </mxCell>
        <mxCell id="f1NmM2olDXPTfRD7Q3vH-21" style="edgeStyle=none;rounded=0;orthogonalLoop=1;jettySize=auto;html=1;" parent="1" source="f1NmM2olDXPTfRD7Q3vH-5" target="f1NmM2olDXPTfRD7Q3vH-12" edge="1">
          <mxGeometry relative="1" as="geometry" />
        </mxCell>
        <mxCell id="1Lz5mu5inwifLmUSbfgd-10" style="edgeStyle=none;rounded=0;orthogonalLoop=1;jettySize=auto;html=1;entryX=0.541;entryY=0.033;entryDx=0;entryDy=0;entryPerimeter=0;" edge="1" parent="1" source="f1NmM2olDXPTfRD7Q3vH-5" target="1Lz5mu5inwifLmUSbfgd-9">
          <mxGeometry relative="1" as="geometry" />
        </mxCell>
        <mxCell id="f1NmM2olDXPTfRD7Q3vH-5" value="&lt;div&gt;getSourceInfo方法&lt;/div&gt;&lt;div&gt;查询数据&lt;br&gt;&lt;/div&gt;" style="rounded=1;whiteSpace=wrap;html=1;" parent="1" vertex="1">
          <mxGeometry x="600" y="80" width="140" height="60" as="geometry" />
        </mxCell>
        <mxCell id="f1NmM2olDXPTfRD7Q3vH-7" value="domainId/sourceId" style="text;html=1;align=center;verticalAlign=middle;resizable=0;points=[];autosize=1;strokeColor=none;fillColor=none;" parent="1" vertex="1">
          <mxGeometry x="455" y="80" width="130" height="30" as="geometry" />
        </mxCell>
        <mxCell id="f1NmM2olDXPTfRD7Q3vH-9" value="botToken" style="text;html=1;align=center;verticalAlign=middle;resizable=0;points=[];autosize=1;strokeColor=none;fillColor=none;" parent="1" vertex="1">
          <mxGeometry x="480" y="180" width="70" height="30" as="geometry" />
        </mxCell>
        <mxCell id="f1NmM2olDXPTfRD7Q3vH-24" style="edgeStyle=none;rounded=0;orthogonalLoop=1;jettySize=auto;html=1;" parent="1" source="f1NmM2olDXPTfRD7Q3vH-12" target="f1NmM2olDXPTfRD7Q3vH-22" edge="1">
          <mxGeometry relative="1" as="geometry" />
        </mxCell>
        <mxCell id="f1NmM2olDXPTfRD7Q3vH-31" style="edgeStyle=none;rounded=0;orthogonalLoop=1;jettySize=auto;html=1;entryX=0.671;entryY=0.017;entryDx=0;entryDy=0;entryPerimeter=0;" parent="1" source="f1NmM2olDXPTfRD7Q3vH-12" target="f1NmM2olDXPTfRD7Q3vH-29" edge="1">
          <mxGeometry relative="1" as="geometry" />
        </mxCell>
        <mxCell id="1Lz5mu5inwifLmUSbfgd-6" style="edgeStyle=none;rounded=0;orthogonalLoop=1;jettySize=auto;html=1;entryX=0.5;entryY=0;entryDx=0;entryDy=0;" edge="1" parent="1" source="f1NmM2olDXPTfRD7Q3vH-12" target="f1NmM2olDXPTfRD7Q3vH-23">
          <mxGeometry relative="1" as="geometry" />
        </mxCell>
        <mxCell id="f1NmM2olDXPTfRD7Q3vH-12" value="unitQuery方法" style="rounded=1;whiteSpace=wrap;html=1;" parent="1" vertex="1">
          <mxGeometry x="320" y="270" width="140" height="60" as="geometry" />
        </mxCell>
        <mxCell id="f1NmM2olDXPTfRD7Q3vH-15" value="queryDto" style="text;html=1;align=center;verticalAlign=middle;resizable=0;points=[];autosize=1;strokeColor=none;fillColor=none;" parent="1" vertex="1">
          <mxGeometry x="330" y="190" width="70" height="30" as="geometry" />
        </mxCell>
        <mxCell id="f1NmM2olDXPTfRD7Q3vH-30" style="edgeStyle=none;rounded=0;orthogonalLoop=1;jettySize=auto;html=1;entryX=0;entryY=0.25;entryDx=0;entryDy=0;" parent="1" source="f1NmM2olDXPTfRD7Q3vH-22" target="f1NmM2olDXPTfRD7Q3vH-29" edge="1">
          <mxGeometry relative="1" as="geometry" />
        </mxCell>
        <mxCell id="f1NmM2olDXPTfRD7Q3vH-22" value="header" style="rounded=1;whiteSpace=wrap;html=1;" parent="1" vertex="1">
          <mxGeometry x="40" y="270" width="140" height="60" as="geometry" />
        </mxCell>
        <mxCell id="1Lz5mu5inwifLmUSbfgd-7" style="edgeStyle=none;rounded=0;orthogonalLoop=1;jettySize=auto;html=1;entryX=0;entryY=0.5;entryDx=0;entryDy=0;" edge="1" parent="1" source="f1NmM2olDXPTfRD7Q3vH-23" target="f1NmM2olDXPTfRD7Q3vH-29">
          <mxGeometry relative="1" as="geometry" />
        </mxCell>
        <mxCell id="f1NmM2olDXPTfRD7Q3vH-23" value="url" style="rounded=1;whiteSpace=wrap;html=1;" parent="1" vertex="1">
          <mxGeometry x="10" y="490" width="140" height="60" as="geometry" />
        </mxCell>
        <mxCell id="f1NmM2olDXPTfRD7Q3vH-25" value="botToken/contentType" style="text;html=1;align=center;verticalAlign=middle;resizable=0;points=[];autosize=1;strokeColor=none;fillColor=none;" parent="1" vertex="1">
          <mxGeometry x="180" y="265" width="140" height="30" as="geometry" />
        </mxCell>
        <mxCell id="f1NmM2olDXPTfRD7Q3vH-27" value="&lt;div&gt;nlu/debug/queryId&lt;/div&gt;&lt;div&gt;queryUrl&lt;/div&gt;" style="text;html=1;align=center;verticalAlign=middle;resizable=0;points=[];autosize=1;strokeColor=none;fillColor=none;" parent="1" vertex="1">
          <mxGeometry x="70" y="430" width="120" height="40" as="geometry" />
        </mxCell>
        <mxCell id="1Lz5mu5inwifLmUSbfgd-8" style="edgeStyle=none;rounded=0;orthogonalLoop=1;jettySize=auto;html=1;entryX=0;entryY=0.5;entryDx=0;entryDy=0;" edge="1" parent="1" source="f1NmM2olDXPTfRD7Q3vH-29" target="f1NmM2olDXPTfRD7Q3vH-43">
          <mxGeometry relative="1" as="geometry" />
        </mxCell>
        <mxCell id="f1NmM2olDXPTfRD7Q3vH-29" value="dopost请求" style="rounded=1;whiteSpace=wrap;html=1;" parent="1" vertex="1">
          <mxGeometry x="243" y="490" width="140" height="60" as="geometry" />
        </mxCell>
        <mxCell id="f1NmM2olDXPTfRD7Q3vH-33" value="url" style="text;html=1;align=center;verticalAlign=middle;resizable=0;points=[];autosize=1;strokeColor=none;fillColor=none;" parent="1" vertex="1">
          <mxGeometry x="170" y="520" width="40" height="30" as="geometry" />
        </mxCell>
        <mxCell id="f1NmM2olDXPTfRD7Q3vH-35" value="&lt;div&gt;header&lt;/div&gt;" style="text;html=1;align=center;verticalAlign=middle;resizable=0;points=[];autosize=1;strokeColor=none;fillColor=none;" parent="1" vertex="1">
          <mxGeometry x="140" y="335" width="60" height="30" as="geometry" />
        </mxCell>
        <mxCell id="f1NmM2olDXPTfRD7Q3vH-36" value="queryDto" style="text;html=1;align=center;verticalAlign=middle;resizable=0;points=[];autosize=1;strokeColor=none;fillColor=none;" parent="1" vertex="1">
          <mxGeometry x="313" y="435" width="70" height="30" as="geometry" />
        </mxCell>
        <mxCell id="f1NmM2olDXPTfRD7Q3vH-40" value="&lt;div&gt;jsonObject&lt;/div&gt;" style="text;html=1;align=center;verticalAlign=middle;resizable=0;points=[];autosize=1;strokeColor=none;fillColor=none;" parent="1" vertex="1">
          <mxGeometry x="505" y="490" width="80" height="30" as="geometry" />
        </mxCell>
        <mxCell id="f1NmM2olDXPTfRD7Q3vH-47" style="edgeStyle=none;rounded=0;orthogonalLoop=1;jettySize=auto;html=1;entryX=0.5;entryY=0;entryDx=0;entryDy=0;" parent="1" source="f1NmM2olDXPTfRD7Q3vH-43" target="f1NmM2olDXPTfRD7Q3vH-46" edge="1">
          <mxGeometry relative="1" as="geometry" />
        </mxCell>
        <mxCell id="1Lz5mu5inwifLmUSbfgd-15" style="edgeStyle=none;rounded=0;orthogonalLoop=1;jettySize=auto;html=1;entryX=0.914;entryY=1;entryDx=0;entryDy=0;entryPerimeter=0;" edge="1" parent="1" source="f1NmM2olDXPTfRD7Q3vH-43" target="f1NmM2olDXPTfRD7Q3vH-12">
          <mxGeometry relative="1" as="geometry" />
        </mxCell>
        <mxCell id="1Lz5mu5inwifLmUSbfgd-17" style="edgeStyle=none;rounded=0;orthogonalLoop=1;jettySize=auto;html=1;entryX=0.624;entryY=1.017;entryDx=0;entryDy=0;entryPerimeter=0;" edge="1" parent="1" source="f1NmM2olDXPTfRD7Q3vH-43" target="1Lz5mu5inwifLmUSbfgd-9">
          <mxGeometry relative="1" as="geometry" />
        </mxCell>
        <mxCell id="f1NmM2olDXPTfRD7Q3vH-43" value="&lt;div&gt;checkResult方法&lt;/div&gt;&lt;div&gt;验null、转为UnitResult、验code&lt;br&gt;&lt;/div&gt;" style="rounded=1;whiteSpace=wrap;html=1;" parent="1" vertex="1">
          <mxGeometry x="630" y="490" width="170" height="60" as="geometry" />
        </mxCell>
        <mxCell id="f1NmM2olDXPTfRD7Q3vH-50" style="edgeStyle=none;rounded=0;orthogonalLoop=1;jettySize=auto;html=1;entryX=0.5;entryY=1;entryDx=0;entryDy=0;" parent="1" source="f1NmM2olDXPTfRD7Q3vH-46" target="f1NmM2olDXPTfRD7Q3vH-12" edge="1">
          <mxGeometry relative="1" as="geometry" />
        </mxCell>
        <mxCell id="f1NmM2olDXPTfRD7Q3vH-46" value="&lt;div&gt;assemblyDebyg方法&lt;/div&gt;&lt;div&gt;移除debug&lt;br&gt;&lt;/div&gt;" style="rounded=1;whiteSpace=wrap;html=1;" parent="1" vertex="1">
          <mxGeometry x="430" y="630" width="170" height="60" as="geometry" />
        </mxCell>
        <mxCell id="1Lz5mu5inwifLmUSbfgd-9" value="startRecords方法存参" style="rounded=1;whiteSpace=wrap;html=1;" vertex="1" parent="1">
          <mxGeometry x="585" y="330" width="170" height="60" as="geometry" />
        </mxCell>
        <mxCell id="1Lz5mu5inwifLmUSbfgd-11" value="&lt;div&gt;botId&lt;/div&gt;&lt;div&gt;agentId&lt;br&gt;&lt;/div&gt;" style="text;html=1;align=center;verticalAlign=middle;resizable=0;points=[];autosize=1;strokeColor=none;fillColor=none;" vertex="1" parent="1">
          <mxGeometry x="675" y="185" width="60" height="40" as="geometry" />
        </mxCell>
        <mxCell id="1Lz5mu5inwifLmUSbfgd-14" value="queryDto" style="text;html=1;align=center;verticalAlign=middle;resizable=0;points=[];autosize=1;strokeColor=none;fillColor=none;" vertex="1" parent="1">
          <mxGeometry x="530" y="270" width="70" height="30" as="geometry" />
        </mxCell>
        <mxCell id="1Lz5mu5inwifLmUSbfgd-16" value="data" style="text;html=1;align=center;verticalAlign=middle;resizable=0;points=[];autosize=1;strokeColor=none;fillColor=none;" vertex="1" parent="1">
          <mxGeometry x="565" y="425" width="50" height="30" as="geometry" />
        </mxCell>
        <mxCell id="1Lz5mu5inwifLmUSbfgd-18" value="data" style="text;html=1;align=center;verticalAlign=middle;resizable=0;points=[];autosize=1;strokeColor=none;fillColor=none;" vertex="1" parent="1">
          <mxGeometry x="705" y="425" width="50" height="30" as="geometry" />
        </mxCell>
        <mxCell id="1Lz5mu5inwifLmUSbfgd-19" value="data" style="text;html=1;align=center;verticalAlign=middle;resizable=0;points=[];autosize=1;strokeColor=none;fillColor=none;" vertex="1" parent="1">
          <mxGeometry x="414" y="440" width="50" height="30" as="geometry" />
        </mxCell>
        <mxCell id="1Lz5mu5inwifLmUSbfgd-20" value="传参debug为空" style="text;html=1;align=center;verticalAlign=middle;resizable=0;points=[];autosize=1;strokeColor=none;fillColor=none;" vertex="1" parent="1">
          <mxGeometry x="575" y="565" width="110" height="30" as="geometry" />
        </mxCell>
      </root>
    </mxGraphModel>
  </diagram>
</mxfile>
